<?xml version="1.0" standalone="no"?>
<!DOCTYPE svg PUBLIC "-//W3C//DTD SVG 20010904//EN"
 "http://www.w3.org/TR/2001/REC-SVG-20010904/DTD/svg10.dtd">
<svg version="1.0" xmlns="http://www.w3.org/2000/svg"
 width="1350.000000pt" height="1350.000000pt" viewBox="0 0 1350.000000 1350.000000"
 preserveAspectRatio="xMidYMid meet">
<metadata>
Created by potrace 1.11, written by Peter Selinger 2001-2013
</metadata>
<g transform="translate(0.000000,1350.000000) scale(0.100000,-0.100000)"
fill="#000000" stroke="none">
<path d="M4625 13242 c-129 -44 -221 -125 -282 -249 -35 -70 -37 -82 -38 -167
0 -100 14 -146 65 -221 16 -24 275 -289 576 -589 301 -301 545 -549 543 -551
-2 -2 -317 -318 -699 -702 -754 -757 -781 -785 -979 -1016 -299 -349 -565
-791 -730 -1210 -49 -126 -85 -218 -86 -227 -1 -3 -20 -63 -43 -135 -36 -112
-101 -356 -116 -435 -3 -14 -7 -36 -11 -50 -10 -47 -34 -185 -40 -230 -3 -25
-8 -52 -10 -60 -7 -28 -18 -139 -31 -305 -15 -195 -9 -650 11 -815 18 -146 21
-167 30 -228 4 -23 8 -52 10 -65 31 -250 179 -776 289 -1032 187 -432 351
-720 591 -1040 86 -114 253 -321 295 -365 8 -9 49 -54 90 -100 98 -110 274
-292 435 -452 l130 -130 -115 7 c-63 3 -124 8 -135 10 -11 2 -45 6 -75 9 -99
9 -219 27 -333 52 -39 8 -83 18 -97 20 -115 23 -534 155 -555 175 -5 5 -14 9
-21 9 -19 0 -101 36 -279 123 -977 479 -1714 1347 -2011 2369 -19 68 -37 130
-39 138 -2 8 -11 46 -20 84 -25 108 -60 307 -70 408 -3 29 -8 62 -10 73 -23
118 -24 693 -1 810 2 11 7 52 10 90 4 39 9 77 11 85 3 8 6 31 9 50 10 84 58
297 97 437 104 366 271 726 478 1028 52 76 228 314 240 325 3 3 28 32 55 65
158 191 337 375 1387 1425 877 877 1029 1033 1052 1081 46 96 54 188 24 290
-18 59 -79 160 -119 194 -158 137 -328 166 -488 83 -31 -16 -358 -336 -1065
-1043 -997 -998 -1127 -1129 -1270 -1289 -38 -44 -75 -84 -80 -90 -6 -6 -48
-56 -94 -111 -46 -55 -92 -111 -103 -124 -53 -62 -223 -297 -280 -386 -222
-343 -391 -706 -519 -1115 -16 -52 -31 -102 -33 -110 -2 -8 -16 -62 -31 -120
-15 -58 -29 -114 -31 -125 -2 -11 -10 -51 -19 -90 -8 -38 -17 -83 -19 -100 -3
-16 -9 -57 -15 -90 -12 -75 -18 -116 -26 -180 -3 -27 -8 -64 -10 -80 -27 -196
-27 -829 -1 -1010 3 -16 7 -54 11 -84 3 -30 7 -64 10 -75 2 -12 6 -41 9 -66 3
-25 14 -92 26 -150 12 -58 24 -118 26 -135 14 -82 85 -339 134 -485 98 -294
231 -588 381 -847 28 -49 60 -103 70 -121 70 -121 268 -396 394 -547 123 -147
348 -382 476 -496 15 -13 42 -38 60 -54 49 -44 262 -213 343 -271 400 -288
839 -512 1299 -665 271 -90 627 -171 852 -194 39 -4 77 -9 86 -10 145 -27 787
-26 999 0 19 2 55 6 80 9 25 3 72 8 105 11 55 6 62 5 83 -18 l23 -24 -559
-559 c-513 -513 -561 -565 -592 -628 -31 -62 -34 -78 -34 -150 0 -92 4 -116
33 -182 46 -102 145 -197 253 -242 52 -22 78 -26 153 -26 81 0 97 3 160 34 64
31 109 73 629 592 l560 559 560 -560 c508 -507 567 -563 625 -590 154 -72 319
-42 459 84 49 45 71 75 103 141 35 73 41 93 41 156 1 40 -2 89 -6 108 -22 105
7 75 -1635 1718 -861 862 -1591 1595 -1621 1628 -279 307 -420 504 -607 852
-13 24 -21 47 -19 51 3 4 792 8 1753 8 961 0 1770 3 1797 7 201 31 341 220
329 446 -3 72 -43 196 -75 232 -11 13 -28 32 -37 43 -29 37 -88 75 -147 97
l-59 21 -1939 1 c-1714 1 -1939 3 -1942 16 -2 8 -14 72 -28 141 -14 70 -28
153 -32 185 -3 33 -8 67 -9 76 -4 17 -11 91 -21 213 -6 76 -6 390 0 470 7 89
17 199 21 225 2 14 6 45 9 70 7 49 40 236 51 285 11 50 13 60 14 68 1 5 25 5
54 1 68 -10 3711 -12 3797 -2 275 32 425 346 300 624 -47 102 -168 192 -285
211 -27 5 -839 9 -1802 8 -964 0 -1753 3 -1753 8 0 4 16 38 35 75 131 253 288
487 494 737 41 49 794 811 1674 1692 880 881 1613 1620 1628 1643 119 177 65
421 -124 563 -20 16 -63 40 -95 55 -50 23 -69 27 -157 27 -171 -1 -133 29
-785 -621 l-565 -564 -560 560 c-526 525 -564 561 -630 591 -86 41 -199 49
-280 21z"/>
<path d="M6973 10949 c-147 -27 -291 -155 -344 -305 -25 -72 -27 -180 -4 -244
37 -103 34 -99 423 -482 l170 -168 -767 -1 c-421 0 -773 -2 -781 -4 -179 -36
-283 -131 -325 -297 -66 -253 78 -503 312 -542 15 -2 541 -5 1168 -5 l1140 -1
70 -112 c81 -130 79 -126 155 -278 84 -167 144 -311 205 -494 50 -150 107
-356 120 -436 3 -19 10 -51 15 -70 11 -43 30 -168 45 -292 l7 -58 -2114 -1
c-1162 -1 -2116 -1 -2120 0 -3 0 -30 -7 -60 -15 -246 -72 -355 -356 -237 -619
21 -50 90 -124 144 -157 98 -60 -38 -56 2202 -57 1126 0 2080 -1 2119 -1 l71
0 -7 -47 c-8 -46 -20 -131 -25 -163 -1 -8 -4 -28 -8 -45 -3 -16 -9 -47 -12
-69 -3 -21 -7 -42 -10 -46 -2 -3 -7 -22 -10 -41 -10 -61 -65 -258 -104 -377
-102 -308 -245 -607 -419 -878 l-46 -71 -1141 -1 -1140 0 -65 -22 c-115 -39
-195 -114 -239 -227 -27 -68 -32 -95 -31 -173 0 -80 5 -109 33 -184 26 -70
117 -170 182 -201 87 -41 113 -42 890 -43 413 0 754 -1 758 -1 5 -1 -57 -65
-139 -143 -294 -285 -391 -384 -417 -424 -93 -148 -77 -328 43 -477 58 -73
162 -141 244 -161 29 -7 137 -9 166 -3 44 9 100 33 140 61 53 36 555 528 805
788 116 121 304 330 322 357 2 3 1174 5 1258 2 15 -1 28 -18 49 -66 35 -80
149 -253 208 -315 97 -102 223 -196 348 -259 68 -34 213 -86 270 -96 18 -3 36
-7 39 -9 3 -2 29 -7 56 -11 28 -4 61 -9 75 -11 53 -8 228 -5 290 5 238 39 430
140 611 320 175 176 321 447 355 661 2 14 6 34 9 46 11 48 19 134 19 204 0
296 -108 550 -326 771 -178 179 -464 329 -698 365 -14 2 -52 8 -85 13 -60 9
-258 7 -305 -3 -14 -3 -38 -8 -55 -12 -181 -37 -375 -141 -521 -281 -116 -111
-192 -215 -269 -368 l-51 -100 -352 -2 c-194 0 -352 1 -352 3 0 2 22 50 49
106 148 311 291 711 337 941 2 10 6 27 9 37 7 21 10 36 31 140 28 140 40 212
63 388 l16 124 878 0 c483 0 880 -2 881 -4 1 -1 17 -34 35 -73 109 -231 305
-438 526 -552 114 -58 216 -94 335 -118 14 -3 34 -7 45 -9 81 -18 264 -25 335
-14 25 4 63 9 85 13 168 26 408 153 550 292 189 185 328 445 378 708 18 92 21
341 6 425 -62 335 -312 647 -654 815 -262 128 -527 168 -789 121 -107 -19
-347 -123 -386 -166 -3 -3 -23 -18 -46 -33 -58 -39 -177 -160 -238 -242 -54
-71 -127 -196 -161 -272 l-18 -43 -879 0 c-829 0 -878 1 -879 18 0 9 -2 24 -3
32 -2 8 -6 47 -10 85 -6 61 -18 153 -30 220 -21 113 -30 162 -46 230 -10 45
-21 92 -24 105 -35 168 -146 509 -230 705 -47 108 -84 190 -117 258 -22 43
-39 80 -39 83 0 2 118 4 263 4 l263 0 44 -92 c61 -124 146 -242 244 -336 76
-73 212 -174 254 -189 9 -3 24 -11 32 -18 20 -15 162 -71 230 -89 114 -32 228
-48 345 -48 112 0 144 2 220 17 430 85 799 470 911 952 28 121 38 314 22 425
-61 422 -383 783 -833 933 -44 15 -91 29 -105 31 -14 3 -33 7 -42 10 -105 31
-334 36 -470 9 -66 -13 -219 -69 -285 -105 -223 -120 -415 -329 -528 -572
l-36 -78 -547 0 -547 0 -38 48 c-112 137 -277 310 -682 713 -372 370 -374 371
-440 404 -75 37 -159 49 -242 34z m3678 -1293 c161 -27 281 -182 275 -356 -4
-86 -12 -115 -52 -175 -107 -162 -376 -186 -529 -47 -141 127 -153 334 -28
473 84 93 195 128 334 105z m1759 -2596 c246 -66 332 -414 143 -580 -101 -89
-264 -107 -400 -44 -244 115 -262 444 -33 589 76 48 190 62 290 35z m-1542
-2594 c167 -60 261 -246 216 -424 -46 -180 -254 -279 -448 -212 -279 95 -326
446 -81 604 81 53 217 66 313 32z"/>
</g>
</svg>
